<svg xmlns="http://www.w3.org/2000/svg" width="128" height="128" viewBox="0 0 128 128"><g fill-rule="evenodd"><path d="M72.7190369 8.41673783 78.8590819 1.42100769C74.8022665.655849701 70.5261637 0 63.8379004 0 49.5842245 0 35.220905 4.70025619 21.9540221 14.5380017L58.1364301 14.5380017C64.2764751 14.64731 68.6622215 12.351836 72.7190369 8.41673783L72.7190369 8.41673783ZM69.3200834 23.8292058 75.7890594 16.7241674C79.4073002 13.0076857 84.1219776 10.2749787 90.1523789 10.2749787L99.8010211 10.2749787C104.954273 13.5542272 111.203962 18.910333 116.137926 25.5781383L69.9779454 25.5781383C68.7718651 25.5781383 67.6754285 26.1246798 66.9079229 26.999146L61.0968089 33.557643C57.5882118 37.4927412 52.8735344 39.8975235 46.843133 39.7882152L3.97246178 39.7882152C5.94604767 34.8693424 8.79678284 29.9504697 12.30538 24.9222886L66.5789919 24.9222886C67.5657849 24.9222886 68.6622215 24.4850555 69.3200834 23.8292058L69.3200834 23.8292058ZM56.8207061 49.1887276 62.4125328 42.8488471C65.592199 39.2416738 70.3068764 35.5251921 77.4337143 35.5251921L122.277971 35.5251921C124.361201 40.0068318 126.005856 44.707088 127.102293 51.5935098L57.3689244 51.5935098C56.2724878 51.5935098 55.2856949 52.030743 54.5181893 52.7959009L48.0492133 59.9009394C44.9791908 63.1801879 40.3741571 66.2408198 34.0148248 66.2408198L.0252899981 66.2408198C-.0843536624 62.5243382.134933659 56.293766 1.23137026 50.9376601L53.7506836 50.9376601C54.9567639 50.9376601 56.0532005 50.2818104 56.8207061 49.1887276ZM48.8167189 74.9854825 54.5181893 68.5362938C57.5882118 65.0384287 62.4125328 61.7591802 69.1007961 61.7591802L127.979442 61.7591802C128.089085 66.0222032 127.760154 71.4876174 126.992649 76.9530316L49.5842245 76.9530316C48.4877879 76.9530316 47.3913513 77.3902647 46.6238457 78.264731L40.0452261 85.588386C36.8655599 88.8676345 32.1508825 92.3654996 25.2433319 92.3654996L5.72676034 92.3654996C3.42424347 88.1024765 1.88923223 82.6370623 1.1217266 76.1878736L45.9659838 76.1878736C47.172064 76.2971819 48.158857 75.8599488 48.8167189 74.9854825L48.8167189 74.9854825Z"/><path d="M35.549836 101.000854 41.7995247 94.2237404C44.9791908 90.616567 49.9131555 87.3373185 56.6014188 87.3373185L124.03227 87.3373185C122.168328 92.3654996 119.098305 97.7216055 115.699352 102.968403L36.207698 102.968403C35.1112614 102.968403 34.1244684 103.405636 33.3569628 104.170794L26.8879868 111.494449C26.0108375 112.478224 24.8047573 113.461998 23.3793897 114.336465 19.5418616 111.275833 15.4850461 107.450043 11.647518 102.421862L32.5894572 102.421862C33.7955374 102.421862 34.891974 101.87532 35.549836 101.000854L35.549836 101.000854ZM43.5538232 113.35269 105.612135 113.35269C96.0731366 120.894962 82.8062537 128 63.8379004 128 52.8735344 128 41.7995247 125.595218 29.6290783 118.490179 32.0412389 116.085397 36.8655599 113.35269 43.5538232 113.35269Z"/></g></svg>