<svg xmlns="http://www.w3.org/2000/svg" width="738" height="128" viewBox="0 0 738 128"><g fill="#FFF" fill-rule="evenodd"><path fill-rule="nonzero" d="M45.3558327 88C36.6695035 88 28.9177794 86.0499376 22.1006603 82.1498127 15.2835412 78.2496879 9.89581805 72.96598 5.93749083 66.2986891 1.97916361 59.6313983 0 52.1985019 0 44 0 35.8014981 1.97916361 28.3686017 5.93749083 21.7013109 9.89581805 15.03402 15.2835412 9.75031211 22.1006603 5.85018727 28.9177794 1.95006242 36.6695035 1.13686838e-13 45.3558327 1.13686838e-13 54.0421619 1.13686838e-13 61.793886 1.95006242 68.6110051 5.85018727 75.4281242 9.75031211 80.8158474 15.0117041 84.7741746 21.6343633 88.7325018 28.2570225 90.7116654 35.7276841 90.7116654 44.0463483 90.7116654 52.2551498 88.7325018 59.6828964 84.7741746 66.329588 80.8158474 72.9762797 75.4281242 78.2496879 68.6110051 82.1498127 61.793886 86.0499376 54.0421619 88 45.3558327 88ZM45.3558327 68.7191011C49.9738811 68.7191011 53.9596967 67.6204744 57.3132795 65.423221 60.6668623 63.2259675 63.2507704 60.2661127 65.0650037 56.5436564 66.879237 52.8212001 67.7863536 48.6468477 67.7863536 44.0205993 67.7863536 39.3926342 66.879237 35.2109863 65.0650037 31.4756554 63.2507704 27.7403246 60.6668623 24.7740325 57.3132795 22.576779 53.9596967 20.3795256 49.9738811 19.2808989 45.3558327 19.2808989 40.7377843 19.2808989 36.7519687 20.3795256 33.3983859 22.576779 30.0448031 24.7740325 27.4608951 27.7338873 25.6466618 31.4563436 23.8324285 35.1787999 22.9253118 39.3531523 22.9253118 43.9794007 22.9253118 48.6073658 23.8324285 52.7890137 25.6466618 56.5243446 27.4608951 60.2596754 30.0448031 63.2259675 33.3983859 65.423221 36.7519687 67.6204744 40.7377843 68.7191011 45.3558327 68.7191011ZM101.019809 86.0224719 101.019809 37.7378277C101.019809 30.8164794 102.641624 24.4993758 105.885253 18.7865169 109.128882 13.0736579 113.829396 8.51435705 119.986794 5.10861423 126.144192 1.70287141 133.511079 0 142.087454 0 150.773783 0 158.168158 1.70287141 164.27058 5.10861423 170.373001 8.51435705 175.046026 13.0736579 178.289655 18.7865169 181.533284 24.4993758 183.155099 30.8164794 183.155099 37.7378277L183.155099 86.0224719 160.559648 86.0224719 160.559648 37.7378277C160.559648 34.3320849 159.734996 31.2284644 158.085693 28.4269663 156.43639 25.6254682 154.209831 23.4007491 151.406016 21.752809 148.602201 20.1048689 145.496014 19.2808989 142.087454 19.2808989 138.678895 19.2808989 135.572707 20.1048689 132.768892 21.752809 129.965077 23.4007491 127.738518 25.6254682 126.089215 28.4269663 124.439912 31.2284644 123.61526 34.3320849 123.61526 37.7378277L123.61526 86.0224719 101.019809 86.0224719ZM234.530888 88C225.954512 88 218.587625 86.2971286 212.430227 82.8913858 206.27283 79.4856429 201.572316 74.9263421 198.328687 69.2134831 195.085057 63.5006242 193.463243 57.1835206 193.463243 50.2621723L193.463243 1.97752809 216.058694 1.97752809 216.058694 50.2621723C216.058694 53.6679151 216.883346 56.7715356 218.532649 59.5730337 220.181952 62.3745318 222.408511 64.5992509 225.212326 66.247191 228.016141 67.8951311 231.122328 68.7191011 234.530888 68.7191011 237.939447 68.7191011 241.045635 67.8951311 243.84945 66.247191 246.653265 64.5992509 248.879824 62.3745318 250.529127 59.5730337 252.17843 56.7715356 253.003081 53.6679151 253.003081 50.2621723L253.003081 1.97752809 275.598533 1.97752809 275.598533 50.2621723C275.598533 57.1835206 273.976718 63.5006242 270.733089 69.2134831 267.48946 74.9263421 262.816434 79.4856429 256.714013 82.8913858 250.611592 86.2971286 243.217217 88 234.530888 88ZM285.906676 86.0224719 285.906676 36.0898876C285.906676 29.4981273 287.501003 23.4556804 290.689655 17.9625468 293.878308 12.4694132 298.468868 8.10237203 304.461335 4.86142322 310.453803 1.62047441 317.683248 0 326.14967 0 330.217951 0 333.983859.466916355 337.447395 1.40074906 340.910932 2.33458177 344.127073 3.6803995 347.095818 5.43820225 350.064563 7.19600499 352.648472 9.28339576 354.847542 11.7003745L355.012472 11.7003745C357.321497 9.28339576 359.960382 7.19600499 362.929127 5.43820225 365.897872 3.6803995 369.141502 2.33458177 372.660015 1.40074906 376.178528.466916355 379.971925 0 384.040205 0 392.506628 0 399.736072 1.62047441 405.72854 4.86142322 411.721008 8.10237203 416.311568 12.4694132 419.50022 17.9625468 422.688873 23.4556804 424.283199 29.4981273 424.283199 36.0898876L424.283199 86.0224719 401.687748 86.0224719 401.687748 36.0898876C401.687748 33.0137328 400.890584 30.2122347 399.296258 27.6853933 397.701932 25.1585518 395.585326 23.1260924 392.946442 21.588015 390.307557 20.0499376 387.338811 19.2808989 384.040205 19.2808989 380.851553 19.2808989 377.910296 20.0499376 375.216434 21.588015 372.522573 23.1260924 370.378479 25.1585518 368.784153 27.6853933 367.189826 30.2122347 366.392663 33.0137328 366.392663 36.0898876L366.392663 86.0224719 343.797212 86.0224719 343.797212 36.0898876C343.797212 33.0137328 343.000049 30.2122347 341.405723 27.6853933 339.811396 25.1585518 337.694791 23.1260924 335.055906 21.588015 332.417021 20.0499376 329.448276 19.2808989 326.14967 19.2808989 322.961017 19.2808989 320.01976 20.0499376 317.325899 21.588015 314.632037 23.1260924 312.487943 25.1585518 310.893617 27.6853933 309.299291 30.2122347 308.502128 33.0137328 308.502128 36.0898876L308.502128 86.0224719 285.906676 86.0224719ZM437.395158 86.0224719 437.395158 1.97752809 460.155539 1.97752809 460.155539 86.0224719 437.395158 86.0224719ZM511.366398 88C503.66965 88 496.962485 86.0224719 491.244901 82.0674157 485.527317 78.1123596 481.101687 72.8114856 477.968012 66.164794 474.834336 59.5181024 473.267498 52.184769 473.267498 44.164794 473.267498 35.9250936 475.054243 28.454432 478.627733 21.752809 482.201223 15.051186 487.341551 9.75031211 494.048716 5.85018727 500.755882 1.95006242 508.78249 1.13686838e-13 518.12854 1.13686838e-13 527.584544 1.13686838e-13 535.556175 1.97752809 542.043434 5.93258427 548.530692 9.88764045 553.478601 15.21598 556.887161 21.917603 560.29572 28.619226 562 36.0349563 562 44.164794L562 86.0224719 539.404549 86.0224719 539.404549 72.0149813 539.074688 72.0149813C537.425385 74.9812734 535.363756 77.6729089 532.889802 80.0898876 530.415847 82.5068664 527.419614 84.4294632 523.901101 85.8576779 520.382587 87.2858926 516.204353 88 511.366398 88ZM517.798679 68.7191011C522.196821 68.7191011 525.990218 67.6204744 529.17887 65.423221 532.367523 63.2259675 534.813989 60.2322097 536.518269 56.4419476 538.222548 52.6516854 539.074688 48.4494382 539.074688 43.835206 539.074688 39.2209738 538.222548 35.0736579 536.518269 31.3932584 534.813989 27.7128589 532.367523 24.7740325 529.17887 22.576779 525.990218 20.3795256 522.196821 19.2808989 517.798679 19.2808989 513.290584 19.2808989 509.414722 20.3795256 506.171093 22.576779 502.927464 24.7740325 500.453509 27.7128589 498.74923 31.3932584 497.04495 35.0736579 496.19281 39.2209738 496.19281 43.835206 496.19281 48.4494382 497.04495 52.6516854 498.74923 56.4419476 500.453509 60.2322097 502.927464 63.2259675 506.171093 65.423221 509.414722 67.6204744 513.290584 68.7191011 517.798679 68.7191011Z" transform="translate(176 20)"/><path d="M72.7190369 8.41673783 78.8590819 1.42100769C74.8022665.655849701 70.5261637 0 63.8379004 0 49.5842245 0 35.220905 4.70025619 21.9540221 14.5380017L58.1364301 14.5380017C64.2764751 14.64731 68.6622215 12.351836 72.7190369 8.41673783L72.7190369 8.41673783ZM69.3200834 23.8292058 75.7890594 16.7241674C79.4073002 13.0076857 84.1219776 10.2749787 90.1523789 10.2749787L99.8010211 10.2749787C104.954273 13.5542272 111.203962 18.910333 116.137926 25.5781383L69.9779454 25.5781383C68.7718651 25.5781383 67.6754285 26.1246798 66.9079229 26.999146L61.0968089 33.557643C57.5882118 37.4927412 52.8735344 39.8975235 46.843133 39.7882152L3.97246178 39.7882152C5.94604767 34.8693424 8.79678284 29.9504697 12.30538 24.9222886L66.5789919 24.9222886C67.5657849 24.9222886 68.6622215 24.4850555 69.3200834 23.8292058L69.3200834 23.8292058ZM56.8207061 49.1887276 62.4125328 42.8488471C65.592199 39.2416738 70.3068764 35.5251921 77.4337143 35.5251921L122.277971 35.5251921C124.361201 40.0068318 126.005856 44.707088 127.102293 51.5935098L57.3689244 51.5935098C56.2724878 51.5935098 55.2856949 52.030743 54.5181893 52.7959009L48.0492133 59.9009394C44.9791908 63.1801879 40.3741571 66.2408198 34.0148248 66.2408198L.0252899981 66.2408198C-.0843536624 62.5243382.134933659 56.293766 1.23137026 50.9376601L53.7506836 50.9376601C54.9567639 50.9376601 56.0532005 50.2818104 56.8207061 49.1887276ZM48.8167189 74.9854825 54.5181893 68.5362938C57.5882118 65.0384287 62.4125328 61.7591802 69.1007961 61.7591802L127.979442 61.7591802C128.089085 66.0222032 127.760154 71.4876174 126.992649 76.9530316L49.5842245 76.9530316C48.4877879 76.9530316 47.3913513 77.3902647 46.6238457 78.264731L40.0452261 85.588386C36.8655599 88.8676345 32.1508825 92.3654996 25.2433319 92.3654996L5.72676034 92.3654996C3.42424347 88.1024765 1.88923223 82.6370623 1.1217266 76.1878736L45.9659838 76.1878736C47.172064 76.2971819 48.158857 75.8599488 48.8167189 74.9854825L48.8167189 74.9854825Z"/><path d="M35.549836 101.000854 41.7995247 94.2237404C44.9791908 90.616567 49.9131555 87.3373185 56.6014188 87.3373185L124.03227 87.3373185C122.168328 92.3654996 119.098305 97.7216055 115.699352 102.968403L36.207698 102.968403C35.1112614 102.968403 34.1244684 103.405636 33.3569628 104.170794L26.8879868 111.494449C26.0108375 112.478224 24.8047573 113.461998 23.3793897 114.336465 19.5418616 111.275833 15.4850461 107.450043 11.647518 102.421862L32.5894572 102.421862C33.7955374 102.421862 34.891974 101.87532 35.549836 101.000854L35.549836 101.000854ZM43.5538232 113.35269 105.612135 113.35269C96.0731366 120.894962 82.8062537 128 63.8379004 128 52.8735344 128 41.7995247 125.595218 29.6290783 118.490179 32.0412389 116.085397 36.8655599 113.35269 43.5538232 113.35269Z"/></g></svg>