<svg xmlns="http://www.w3.org/2000/svg" width="746" height="128" viewBox="0 0 746 128"><g fill="none" fill-rule="evenodd"><g fill="#FFF"><path d="M72.7190369 8.41673783 78.8590819 1.42100769C74.8022665.655849701 70.5261637 0 63.8379004 0 49.5842245 0 35.220905 4.70025619 21.9540221 14.5380017L58.1364301 14.5380017C64.2764751 14.64731 68.6622215 12.351836 72.7190369 8.41673783L72.7190369 8.41673783ZM69.3200834 23.8292058 75.7890594 16.7241674C79.4073002 13.0076857 84.1219776 10.2749787 90.1523789 10.2749787L99.8010211 10.2749787C104.954273 13.5542272 111.203962 18.910333 116.137926 25.5781383L69.9779454 25.5781383C68.7718651 25.5781383 67.6754285 26.1246798 66.9079229 26.999146L61.0968089 33.557643C57.5882118 37.4927412 52.8735344 39.8975235 46.843133 39.7882152L3.97246178 39.7882152C5.94604767 34.8693424 8.79678284 29.9504697 12.30538 24.9222886L66.5789919 24.9222886C67.5657849 24.9222886 68.6622215 24.4850555 69.3200834 23.8292058L69.3200834 23.8292058ZM56.8207061 49.1887276 62.4125328 42.8488471C65.592199 39.2416738 70.3068764 35.5251921 77.4337143 35.5251921L122.277971 35.5251921C124.361201 40.0068318 126.005856 44.707088 127.102293 51.5935098L57.3689244 51.5935098C56.2724878 51.5935098 55.2856949 52.030743 54.5181893 52.7959009L48.0492133 59.9009394C44.9791908 63.1801879 40.3741571 66.2408198 34.0148248 66.2408198L.0252899981 66.2408198C-.0843536624 62.5243382.134933659 56.293766 1.23137026 50.9376601L53.7506836 50.9376601C54.9567639 50.9376601 56.0532005 50.2818104 56.8207061 49.1887276ZM48.8167189 74.9854825 54.5181893 68.5362938C57.5882118 65.0384287 62.4125328 61.7591802 69.1007961 61.7591802L127.979442 61.7591802C128.089085 66.0222032 127.760154 71.4876174 126.992649 76.9530316L49.5842245 76.9530316C48.4877879 76.9530316 47.3913513 77.3902647 46.6238457 78.264731L40.0452261 85.588386C36.8655599 88.8676345 32.1508825 92.3654996 25.2433319 92.3654996L5.72676034 92.3654996C3.42424347 88.1024765 1.88923223 82.6370623 1.1217266 76.1878736L45.9659838 76.1878736C47.172064 76.2971819 48.158857 75.8599488 48.8167189 74.9854825L48.8167189 74.9854825Z"/><path d="M35.549836 101.000854 41.7995247 94.2237404C44.9791908 90.616567 49.9131555 87.3373185 56.6014188 87.3373185L124.03227 87.3373185C122.168328 92.3654996 119.098305 97.7216055 115.699352 102.968403L36.207698 102.968403C35.1112614 102.968403 34.1244684 103.405636 33.3569628 104.170794L26.8879868 111.494449C26.0108375 112.478224 24.8047573 113.461998 23.3793897 114.336465 19.5418616 111.275833 15.4850461 107.450043 11.647518 102.421862L32.5894572 102.421862C33.7955374 102.421862 34.891974 101.87532 35.549836 101.000854L35.549836 101.000854ZM43.5538232 113.35269 105.612135 113.35269C96.0731366 120.894962 82.8062537 128 63.8379004 128 52.8735344 128 41.7995247 125.595218 29.6290783 118.490179 32.0412389 116.085397 36.8655599 113.35269 43.5538232 113.35269Z"/></g><g fill="#FFF" transform="translate(176 20)"><path fill-rule="nonzero" d="M40.2386926,88 C64.3337182,88 78.308833,77.5123288 78.308833,61.8410959 C78.308833,46.169863 67.3455963,39.0575342 46.1419739,35.4410959 L37.1063393,33.8739726 C26.2635778,31.9452055 21.685523,29.1726027 21.685523,24.9534247 C21.685523,20.1315068 28.311655,16.8767123 37.4677647,16.8767123 C47.9491008,16.8767123 55.5390338,21.3369863 61.8037405,26.8821918 L75.537905,13.8630137 C66.8636958,5.54520548 53.9728572,0 38.1906155,0 C18.5531697,0 3.01187819,9.40273973 3.01187819,25.9178082 C3.01187819,40.7452055 14.0955899,48.2191781 33.010185,51.3534247 L44.4553221,53.2821918 C56.1414095,55.2109589 59.6351882,58.1041096 59.6351882,62.2027397 C59.6351882,67.2657534 53.8523821,71.1232877 41.4434439,71.1232877 C29.1549809,71.1232877 19.9988712,65.5780822 14.0955899,58.7068493 L0,71.4849315 C8.55373406,81.1287671 23.0107494,88 40.2386926,88 Z"/><polygon fill-rule="nonzero" points="83.414 86.192 142.206 86.192 142.206 68.833 101.847 68.833 101.847 1.808 83.414 1.808"/><path fill-rule="nonzero" d="M185.140152 88C203.934272 88 216.34321 79.8027397 224.294569 70.0383562L211.885631 57.3808219C206.343775 65.0958904 198.512892 70.8821918 186.706329 70.8821918 173.33359 70.8821918 162.611304 63.890411 160.442751 50.0273973L224.294569 50.0273973C224.415044 48.9424658 224.655994 46.7726027 224.655994 41.5890411 224.655994 20.2520548 211.40373 0 184.417302 0 157.912774 0 141.769106 20.4931507 141.769106 44 141.769106 70.4 158.876575 88 185.140152 88ZM205.500449 34.9589041 161.286077 34.9589041C164.297955 23.5068493 172.851689 16.8767123 184.417302 16.8767123 197.30814 16.8767123 204.898073 25.3150685 205.500449 34.9589041ZM272.529798 88C291.323918 88 303.732856 79.8027397 311.684215 70.0383562L299.275276 57.3808219C293.733421 65.0958904 285.902537 70.8821918 274.095975 70.8821918 260.723236 70.8821918 250.000949 63.890411 247.832397 50.0273973L311.684215 50.0273973C311.80469 48.9424658 312.04564 46.7726027 312.04564 41.5890411 312.04564 20.2520548 298.793376 0 271.806947 0 245.302419 0 229.158752 20.4931507 229.158752 44 229.158752 70.4 246.26622 88 272.529798 88ZM292.890095 34.9589041 248.675723 34.9589041C251.687601 23.5068493 260.241335 16.8767123 271.806947 16.8767123 284.697786 16.8767123 292.287719 25.3150685 292.890095 34.9589041Z"/><polygon fill-rule="nonzero" points="336.186 51.233 344.017 51.233 371.003 86.192 393.652 86.192 359.438 42.071 392.327 1.808 370.521 1.808 344.258 34.356 336.186 34.356 336.186 1.808 317.874 1.808 317.874 86.192 336.186 86.192"/><path fill-rule="nonzero" d="M45.4191231 88C72.2850766 88 90.8382462 68.8328767 90.8382462 44 90.8382462 19.0465753 72.2850766 0 45.4191231 0 18.5531697 0 0 19.1671233 0 43.8794521 0 68.9534247 18.5531697 88 45.4191231 88ZM45.4191231 67.5068493C31.3235332 67.5068493 23.1312245 56.7780822 23.1312245 44 23.1312245 30.9808219 31.4440083 20.4931507 45.4191231 20.4931507 59.5147131 20.4931507 67.7070217 31.2219178 67.7070217 43.8794521 67.7070217 57.0191781 59.3942379 67.5068493 45.4191231 67.5068493ZM131.844968 88C154.976192 88 170.758434 77.5123288 170.758434 60.2739726 170.758434 45.9287671 160.277098 37.369863 139.916801 33.6328767L127.266913 31.3424658C120.399831 30.1369863 117.387952 28.569863 117.387952 25.4356164 117.387952 21.4575342 123.893609 19.6493151 130.278791 19.6493151 139.916801 19.6493151 147.62721 24.230137 153.169065 29.7753425L167.867031 15.309589C159.313297 6.14794521 147.145309 0 131.001642 0 110.400395 0 94.256728 10.6082192 94.256728 27.1232877 94.256728 41.1068493 105.34044 49.7863014 122.086482 52.8L136.423023 55.3315068C144.856282 56.7780822 147.506734 58.5863014 147.506734 62.0821918 147.506734 65.8191781 142.446779 68.3506849 133.652095 68.3506849 120.520306 68.3506849 112.568947 62.5643836 106.665666 55.6931507L91.0038995 70.0383562C99.1962082 80.7671233 114.135124 88 131.844968 88Z" transform="translate(397.652)"/></g></g></svg>